0
SECTION
2
HEADER
9
$INSUNITS
70
4
9
$ACADVER
1
AC1014
9
$HANDSEED
5
FFFF
0
ENDSEC
0
SECTION
2
TABLES
0
TABLE
2
VPORT
5
8
100
AcDbSymbolTable
0
ENDTAB
0
TABLE
2
LTYPE
5
5
100
AcDbSymbolTable
0
LTYPE
5
14
100
AcDbSymbolTableRecord
100
AcDbLinetypeTableRecord
2
BYBLOCK
70
0
0
LTYPE
5
15
100
AcDbSymbolTableRecord
100
AcDbLinetypeTableRecord
2
BYLAYER
70
0
0
LTYPE
5
16
100
AcDbSymbolTableRecord
100
AcDbLinetypeTableRecord
2
DASHED
70
0
3
Dashed __ __ __ __ __ __ __ __ __ __ __ __ __ _
72
65
73
2
40
0.75
49
0.5
74
0
49
-0.25
74
0
0
ENDTAB
0
TABLE
2
LAYER
5
2
100
AcDbSymbolTable
70
2
0
LAYER
5
50
100
AcDbSymbolTableRecord
100
AcDbLayerTableRecord
2
0
70
0
62
7
6
CONTINUOUS
0
ENDTAB
0
TABLE
2
STYLE
5
3
100
AcDbSymbolTable
70
1
0
STYLE
5
11
100
AcDbSymbolTableRecord
100
AcDbTextStyleTableRecord
2
STANDARD
70
0
0
ENDTAB
0
TABLE
2
VIEW
5
6
100
AcDbSymbolTable
70
0
0
ENDTAB
0
TABLE
2
UCS
5
7
100
AcDbSymbolTable
70
0
0
ENDTAB
0
TABLE
2
APPID
5
9
100
AcDbSymbolTable
70
2
0
APPID
5
12
100
AcDbSymbolTableRecord
100
AcDbRegAppTableRecord
2
ACAD
70
0
0
ENDTAB
0
TABLE
2
DIMSTYLE
5
A
100
AcDbSymbolTable
70
1
0
ENDTAB
0
TABLE
2
BLOCK_RECORD
5
1
100
AcDbSymbolTable
70
1
0
BLOCK_RECORD
5
1F
100
AcDbSymbolTableRecord
100
AcDbBlockTableRecord
2
*MODEL_SPACE
0
BLOCK_RECORD
5
1B
100
AcDbSymbolTableRecord
100
AcDbBlockTableRecord
2
*PAPER_SPACE
0
ENDTAB
0
ENDSEC
0
SECTION
2
BLOCKS
0
BLOCK
5
20
100
AcDbEntity
100
AcDbBlockBegin
2
*MODEL_SPACE
0
ENDBLK
5
21
100
AcDbEntity
100
AcDbBlockEnd
0
BLOCK
5
1C
100
AcDbEntity
100
AcDbBlockBegin
2
*PAPER_SPACE
0
ENDBLK
5
1D
100
AcDbEntity
100
AcDbBlockEnd
0
ENDSEC
0
SECTION
2
ENTITIES
0
POINT
5
100
100
AcDbEntity
8
0
100
AcDbPoint
10
0
20
0
30
0
0
POINT
5
101
100
AcDbEntity
8
0
100
AcDbPoint
10
0
20
35
30
0
0
LINE
5
102
100
AcDbEntity
8
0
100
AcDbLine
10
0
20
70
30
0
11
0
21
0
31
0
6
DASHED
0
LWPOLYLINE
5
103
100
AcDbEntity
8
0
100
AcDbPolyline
90
5
70
1
43
0.0
10
0
20
0
10
0
20
70
10
66.000000000000028
20
70
10
107.71137574079737
20
35.000000000000028
10
66
20
4.0413344371862662e-15
0
LINE
5
104
100
AcDbEntity
8
0
100
AcDbLine
10
130
20
420
30
0
11
131
21
420
31
0
0
LINE
5
105
100
AcDbEntity
8
0
100
AcDbLine
10
0
20
70
30
0
11
66.000000000000028
21
70
31
0
0
LINE
5
106
100
AcDbEntity
8
0
100
AcDbLine
10
0
20
0
30
0
11
65
21
0
31
0
6
DASHED
0
LINE
5
107
100
AcDbEntity
8
0
100
AcDbLine
10
0
20
0
30
0
11
65
21
0
31
0
0
LINE
5
108
100
AcDbEntity
8
0
100
AcDbLine
10
41.711375740797358
20
35.000000000000007
30
0
11
107.71137574079737
21
35.000000000000028
31
0
0
LINE
5
109
100
AcDbEntity
8
0
100
AcDbLine
10
66
20
70
30
0
11
132.00000000000003
21
70
31
0
0
LINE
5
110
100
AcDbEntity
8
0
100
AcDbLine
10
66
20
70
30
0
11
107.71137574079737
21
35.000000000000007
31
0
0
LINE
5
111
100
AcDbEntity
8
0
100
AcDbLine
10
173.71137574079737
20
35.000000000000028
30
0
11
132.00000000000003
21
70
31
0
0
LINE
5
112
100
AcDbEntity
8
0
100
AcDbLine
10
107.71137574079737
20
35.000000000000007
30
0
11
173.71137574079737
21
35.000000000000028
31
0
0
LINE
5
113
100
AcDbEntity
8
0
100
AcDbLine
10
66
20
0
30
0
11
107.71137574079737
21
35.000000000000007
31
0
0
LINE
5
114
100
AcDbEntity
8
0
100
AcDbLine
10
66
20
0
30
0
11
132
21
4.0413344371862662e-15
31
0
0
LINE
5
115
100
AcDbEntity
8
0
100
AcDbLine
10
173.71137574079737
20
35.000000000000028
30
0
11
132
21
4.0413344371862662e-15
31
0
0
LINE
5
116
100
AcDbEntity
8
0
100
AcDbLine
10
132
20
70
30
0
11
198.00000000000006
21
70
31
0
0
LINE
5
117
100
AcDbEntity
8
0
100
AcDbLine
10
132
20
70
30
0
11
173.71137574079737
21
35.000000000000007
31
0
0
LINE
5
118
100
AcDbEntity
8
0
100
AcDbLine
10
239.71137574079737
20
35.000000000000028
30
0
11
198.00000000000006
21
70
31
0
0
LINE
5
119
100
AcDbEntity
8
0
100
AcDbLine
10
173.71137574079737
20
35.000000000000007
30
0
11
239.71137574079737
21
35.000000000000028
31
0
0
LINE
5
120
100
AcDbEntity
8
0
100
AcDbLine
10
132
20
0
30
0
11
173.71137574079737
21
35.000000000000007
31
0
0
LINE
5
121
100
AcDbEntity
8
0
100
AcDbLine
10
132
20
0
30
0
11
198
21
4.0413344371862662e-15
31
0
0
LINE
5
122
100
AcDbEntity
8
0
100
AcDbLine
10
239.71137574079737
20
35.000000000000028
30
0
11
198
21
4.0413344371862662e-15
31
0
0
LINE
5
123
100
AcDbEntity
8
0
100
AcDbLine
10
198
20
70
30
0
11
264.00000000000006
21
70
31
0
0
LINE
5
124
100
AcDbEntity
8
0
100
AcDbLine
10
198
20
70
30
0
11
239.71137574079737
21
35.000000000000007
31
0
0
LINE
5
125
100
AcDbEntity
8
0
100
AcDbLine
10
305.71137574079734
20
35.000000000000028
30
0
11
264.00000000000006
21
70
31
0
0
LINE
5
126
100
AcDbEntity
8
0
100
AcDbLine
10
239.71137574079737
20
35.000000000000007
30
0
11
305.71137574079734
21
35.000000000000028
31
0
0
LINE
5
127
100
AcDbEntity
8
0
100
AcDbLine
10
198
20
0
30
0
11
239.71137574079737
21
35.000000000000007
31
0
0
LINE
5
128
100
AcDbEntity
8
0
100
AcDbLine
10
198
20
0
30
0
11
264
21
4.0413344371862662e-15
31
0
0
LINE
5
129
100
AcDbEntity
8
0
100
AcDbLine
10
305.71137574079734
20
35.000000000000028
30
0
11
264
21
4.0413344371862662e-15
31
0
0
LINE
5
130
100
AcDbEntity
8
0
100
AcDbLine
10
264
20
70
30
0
11
330.00000000000006
21
70
31
0
0
LINE
5
131
100
AcDbEntity
8
0
100
AcDbLine
10
264
20
70
30
0
11
305.71137574079739
21
35.000000000000007
31
0
0
LINE
5
132
100
AcDbEntity
8
0
100
AcDbLine
10
371.71137574079739
20
35.000000000000028
30
0
11
330.00000000000006
21
70
31
0
0
LINE
5
133
100
AcDbEntity
8
0
100
AcDbLine
10
305.71137574079739
20
35.000000000000007
30
0
11
371.71137574079739
21
35.000000000000028
31
0
0
LINE
5
134
100
AcDbEntity
8
0
100
AcDbLine
10
264
20
0
30
0
11
305.71137574079739
21
35.000000000000007
31
0
0
LINE
5
135
100
AcDbEntity
8
0
100
AcDbLine
10
264
20
0
30
0
11
330
21
4.0413344371862662e-15
31
0
0
LINE
5
136
100
AcDbEntity
8
0
100
AcDbLine
10
371.71137574079739
20
35.000000000000028
30
0
11
330
21
4.0413344371862662e-15
31
0
0
LINE
5
137
100
AcDbEntity
8
0
100
AcDbLine
10
330
20
70
30
0
11
396
21
70
31
0
0
LINE
5
138
100
AcDbEntity
8
0
100
AcDbLine
10
330
20
70
30
0
11
371.71137574079739
21
35.000000000000007
31
0
0
LINE
5
139
100
AcDbEntity
8
0
100
AcDbLine
10
437.71137574079739
20
35.000000000000028
30
0
11
396
21
70
31
0
0
LINE
5
140
100
AcDbEntity
8
0
100
AcDbLine
10
371.71137574079739
20
35.000000000000007
30
0
11
437.71137574079739
21
35.000000000000028
31
0
0
LINE
5
141
100
AcDbEntity
8
0
100
AcDbLine
10
330
20
0
30
0
11
371.71137574079739
21
35.000000000000007
31
0
0
LINE
5
142
100
AcDbEntity
8
0
100
AcDbLine
10
330
20
0
30
0
11
396
21
4.0413344371862662e-15
31
0
0
LINE
5
143
100
AcDbEntity
8
0
100
AcDbLine
10
437.71137574079739
20
35.000000000000028
30
0
11
396
21
4.0413344371862662e-15
31
0
0
LINE
5
144
100
AcDbEntity
8
0
100
AcDbLine
10
396
20
70
30
0
11
462
21
70
31
0
0
LINE
5
145
100
AcDbEntity
8
0
100
AcDbLine
10
396
20
70
30
0
11
437.71137574079739
21
35.000000000000007
31
0
0
LINE
5
146
100
AcDbEntity
8
0
100
AcDbLine
10
503.71137574079739
20
35.000000000000028
30
0
11
462
21
70
31
0
0
LINE
5
147
100
AcDbEntity
8
0
100
AcDbLine
10
437.71137574079739
20
35.000000000000007
30
0
11
503.71137574079739
21
35.000000000000028
31
0
0
LINE
5
148
100
AcDbEntity
8
0
100
AcDbLine
10
396
20
0
30
0
11
437.71137574079739
21
35.000000000000007
31
0
0
LINE
5
149
100
AcDbEntity
8
0
100
AcDbLine
10
396
20
0
30
0
11
462
21
4.0413344371862662e-15
31
0
0
LINE
5
150
100
AcDbEntity
8
0
100
AcDbLine
10
503.71137574079739
20
35.000000000000028
30
0
11
462
21
4.0413344371862662e-15
31
0
0
LINE
5
151
100
AcDbEntity
8
0
100
AcDbLine
10
462
20
70
30
0
11
528
21
70
31
0
0
LINE
5
152
100
AcDbEntity
8
0
100
AcDbLine
10
462
20
70
30
0
11
503.71137574079739
21
35.000000000000007
31
0
0
LINE
5
153
100
AcDbEntity
8
0
100
AcDbLine
10
569.71137574079739
20
35.000000000000028
30
0
11
528
21
70
31
0
0
LINE
5
154
100
AcDbEntity
8
0
100
AcDbLine
10
503.71137574079739
20
35.000000000000007
30
0
11
569.71137574079739
21
35.000000000000028
31
0
0
LINE
5
155
100
AcDbEntity
8
0
100
AcDbLine
10
462
20
0
30
0
11
503.71137574079739
21
35.000000000000007
31
0
0
LINE
5
156
100
AcDbEntity
8
0
100
AcDbLine
10
462
20
0
30
0
11
528
21
4.0413344371862662e-15
31
0
0
LINE
5
157
100
AcDbEntity
8
0
100
AcDbLine
10
569.71137574079739
20
35.000000000000028
30
0
11
528
21
4.0413344371862662e-15
31
0
0
LINE
5
158
100
AcDbEntity
8
0
100
AcDbLine
10
528
20
70
30
0
11
594
21
70
31
0
0
LINE
5
159
100
AcDbEntity
8
0
100
AcDbLine
10
528
20
70
30
0
11
569.71137574079739
21
35.000000000000007
31
0
0
LINE
5
160
100
AcDbEntity
8
0
100
AcDbLine
10
635.71137574079739
20
35.000000000000028
30
0
11
594
21
70
31
0
0
LINE
5
161
100
AcDbEntity
8
0
100
AcDbLine
10
569.71137574079739
20
35.000000000000007
30
0
11
635.71137574079739
21
35.000000000000028
31
0
0
LINE
5
162
100
AcDbEntity
8
0
100
AcDbLine
10
528
20
0
30
0
11
569.71137574079739
21
35.000000000000007
31
0
0
LINE
5
163
100
AcDbEntity
8
0
100
AcDbLine
10
528
20
0
30
0
11
594
21
4.0413344371862662e-15
31
0
0
LINE
5
164
100
AcDbEntity
8
0
100
AcDbLine
10
635.71137574079739
20
35.000000000000028
30
0
11
594
21
4.0413344371862662e-15
31
0
0
LINE
5
165
100
AcDbEntity
8
0
100
AcDbLine
10
594
20
70
30
0
11
660.00000000000011
21
70
31
0
0
LINE
5
166
100
AcDbEntity
8
0
100
AcDbLine
10
594
20
70
30
0
11
635.71137574079739
21
35.000000000000007
31
0
0
LINE
5
167
100
AcDbEntity
8
0
100
AcDbLine
10
635.71137574079739
20
35.000000000000007
30
0
11
701.71137574079739
21
35.000000000000028
31
0
0
LINE
5
168
100
AcDbEntity
8
0
100
AcDbLine
10
594
20
0
30
0
11
635.71137574079739
21
35.000000000000007
31
0
0
LINE
5
169
100
AcDbEntity
8
0
100
AcDbLine
10
594
20
0
30
0
11
660
21
4.0413344371862662e-15
31
0
0
LINE
5
170
100
AcDbEntity
8
0
100
AcDbLine
10
0
20
140
30
0
11
66.000000000000028
21
140
31
0
0
LINE
5
171
100
AcDbEntity
8
0
100
AcDbLine
10
107.71137574079737
20
105.00000000000003
30
0
11
66.000000000000028
21
140
31
0
0
LINE
5
172
100
AcDbEntity
8
0
100
AcDbLine
10
41.711375740797358
20
105
30
0
11
107.71137574079737
21
105.00000000000003
31
0
0
LINE
5
173
100
AcDbEntity
8
0
100
AcDbLine
10
0
20
70
30
0
11
66
21
70
31
0
0
LINE
5
174
100
AcDbEntity
8
0
100
AcDbLine
10
107.71137574079737
20
105.00000000000003
30
0
11
66
21
70
31
0
0
LINE
5
175
100
AcDbEntity
8
0
100
AcDbLine
10
66
20
140
30
0
11
132.00000000000003
21
140
31
0
0
LINE
5
176
100
AcDbEntity
8
0
100
AcDbLine
10
66
20
140
30
0
11
107.71137574079737
21
105
31
0
0
LINE
5
177
100
AcDbEntity
8
0
100
AcDbLine
10
173.71137574079737
20
105.00000000000003
30
0
11
132.00000000000003
21
140
31
0
0
LINE
5
178
100
AcDbEntity
8
0
100
AcDbLine
10
107.71137574079737
20
105
30
0
11
173.71137574079737
21
105.00000000000003
31
0
0
LINE
5
179
100
AcDbEntity
8
0
100
AcDbLine
10
66
20
70
30
0
11
107.71137574079737
21
105
31
0
0
LINE
5
180
100
AcDbEntity
8
0
100
AcDbLine
10
66
20
70
30
0
11
132
21
70
31
0
0
LINE
5
181
100
AcDbEntity
8
0
100
AcDbLine
10
173.71137574079737
20
105.00000000000003
30
0
11
132
21
70
31
0
0
LINE
5
182
100
AcDbEntity
8
0
100
AcDbLine
10
132
20
140
30
0
11
198.00000000000006
21
140
31
0
0
LINE
5
183
100
AcDbEntity
8
0
100
AcDbLine
10
132
20
140
30
0
11
173.71137574079737
21
105
31
0
0
LINE
5
184
100
AcDbEntity
8
0
100
AcDbLine
10
239.71137574079737
20
105.00000000000003
30
0
11
198.00000000000006
21
140
31
0
0
LINE
5
185
100
AcDbEntity
8
0
100
AcDbLine
10
173.71137574079737
20
105
30
0
11
239.71137574079737
21
105.00000000000003
31
0
0
LINE
5
186
100
AcDbEntity
8
0
100
AcDbLine
10
132
20
70
30
0
11
173.71137574079737
21
105
31
0
0
LINE
5
187
100
AcDbEntity
8
0
100
AcDbLine
10
132
20
70
30
0
11
198
21
70
31
0
0
LINE
5
188
100
AcDbEntity
8
0
100
AcDbLine
10
239.71137574079737
20
105.00000000000003
30
0
11
198
21
70
31
0
0
LINE
5
189
100
AcDbEntity
8
0
100
AcDbLine
10
198
20
140
30
0
11
264.00000000000006
21
140
31
0
0
LINE
5
190
100
AcDbEntity
8
0
100
AcDbLine
10
198
20
140
30
0
11
239.71137574079737
21
105
31
0
0
LINE
5
191
100
AcDbEntity
8
0
100
AcDbLine
10
305.71137574079734
20
105.00000000000003
30
0
11
264.00000000000006
21
140
31
0
0
LINE
5
192
100
AcDbEntity
8
0
100
AcDbLine
10
239.71137574079737
20
105
30
0
11
305.71137574079734
21
105.00000000000003
31
0
0
LINE
5
193
100
AcDbEntity
8
0
100
AcDbLine
10
198
20
70
30
0
11
239.71137574079737
21
105
31
0
0
LINE
5
194
100
AcDbEntity
8
0
100
AcDbLine
10
198
20
70
30
0
11
264
21
70
31
0
0
LINE
5
195
100
AcDbEntity
8
0
100
AcDbLine
10
305.71137574079734
20
105.00000000000003
30
0
11
264
21
70
31
0
0
LINE
5
196
100
AcDbEntity
8
0
100
AcDbLine
10
264
20
140
30
0
11
330.00000000000006
21
140
31
0
0
LINE
5
197
100
AcDbEntity
8
0
100
AcDbLine
10
264
20
140
30
0
11
305.71137574079739
21
105
31
0
0
LINE
5
198
100
AcDbEntity
8
0
100
AcDbLine
10
371.71137574079739
20
105.00000000000003
30
0
11
330.00000000000006
21
140
31
0
0
LINE
5
199
100
AcDbEntity
8
0
100
AcDbLine
10
305.71137574079739
20
105
30
0
11
371.71137574079739
21
105.00000000000003
31
0
0
LINE
5
200
100
AcDbEntity
8
0
100
AcDbLine
10
264
20
70
30
0
11
305.71137574079739
21
105
31
0
0
LINE
5
201
100
AcDbEntity
8
0
100
AcDbLine
10
264
20
70
30
0
11
330
21
70
31
0
0
LINE
5
202
100
AcDbEntity
8
0
100
AcDbLine
10
371.71137574079739
20
105.00000000000003
30
0
11
330
21
70
31
0
0
LINE
5
203
100
AcDbEntity
8
0
100
AcDbLine
10
330
20
140
30
0
11
396
21
140
31
0
0
LINE
5
204
100
AcDbEntity
8
0
100
AcDbLine
10
330
20
140
30
0
11
371.71137574079739
21
105
31
0
0
LINE
5
205
100
AcDbEntity
8
0
100
AcDbLine
10
437.71137574079739
20
105.00000000000003
30
0
11
396
21
140
31
0
0
LINE
5
206
100
AcDbEntity
8
0
100
AcDbLine
10
371.71137574079739
20
105
30
0
11
437.71137574079739
21
105.00000000000003
31
0
0
LINE
5
207
100
AcDbEntity
8
0
100
AcDbLine
10
330
20
70
30
0
11
371.71137574079739
21
105
31
0
0
LINE
5
208
100
AcDbEntity
8
0
100
AcDbLine
10
330
20
70
30
0
11
396
21
70
31
0
0
LINE
5
209
100
AcDbEntity
8
0
100
AcDbLine
10
437.71137574079739
20
105.00000000000003
30
0
11
396
21
70
31
0
0
LINE
5
210
100
AcDbEntity
8
0
100
AcDbLine
10
396
20
140
30
0
11
462
21
140
31
0
0
LINE
5
211
100
AcDbEntity
8
0
100
AcDbLine
10
396
20
140
30
0
11
437.71137574079739
21
105
31
0
0
LINE
5
212
100
AcDbEntity
8
0
100
AcDbLine
10
503.71137574079739
20
105.00000000000003
30
0
11
462
21
140
31
0
0
LINE
5
213
100
AcDbEntity
8
0
100
AcDbLine
10
437.71137574079739
20
105
30
0
11
503.71137574079739
21
105.00000000000003
31
0
0
LINE
5
214
100
AcDbEntity
8
0
100
AcDbLine
10
396
20
70
30
0
11
437.71137574079739
21
105
31
0
0
LINE
5
215
100
AcDbEntity
8
0
100
AcDbLine
10
396
20
70
30
0
11
462
21
70
31
0
0
LINE
5
216
100
AcDbEntity
8
0
100
AcDbLine
10
503.71137574079739
20
105.00000000000003
30
0
11
462
21
70
31
0
0
LINE
5
217
100
AcDbEntity
8
0
100
AcDbLine
10
462
20
140
30
0
11
528
21
140
31
0
0
LINE
5
218
100
AcDbEntity
8
0
100
AcDbLine
10
462
20
140
30
0
11
503.71137574079739
21
105
31
0
0
LINE
5
219
100
AcDbEntity
8
0
100
AcDbLine
10
569.71137574079739
20
105.00000000000003
30
0
11
528
21
140
31
0
0
LINE
5
220
100
AcDbEntity
8
0
100
AcDbLine
10
503.71137574079739
20
105
30
0
11
569.71137574079739
21
105.00000000000003
31
0
0
LINE
5
221
100
AcDbEntity
8
0
100
AcDbLine
10
462
20
70
30
0
11
503.71137574079739
21
105
31
0
0
LINE
5
222
100
AcDbEntity
8
0
100
AcDbLine
10
462
20
70
30
0
11
528
21
70
31
0
0
LINE
5
223
100
AcDbEntity
8
0
100
AcDbLine
10
569.71137574079739
20
105.00000000000003
30
0
11
528
21
70
31
0
0
LINE
5
224
100
AcDbEntity
8
0
100
AcDbLine
10
528
20
140
30
0
11
594
21
140
31
0
0
LINE
5
225
100
AcDbEntity
8
0
100
AcDbLine
10
528
20
140
30
0
11
569.71137574079739
21
105
31
0
0
LINE
5
226
100
AcDbEntity
8
0
100
AcDbLine
10
635.71137574079739
20
105.00000000000003
30
0
11
594
21
140
31
0
0
LINE
5
227
100
AcDbEntity
8
0
100
AcDbLine
10
569.71137574079739
20
105
30
0
11
635.71137574079739
21
105.00000000000003
31
0
0
LINE
5
228
100
AcDbEntity
8
0
100
AcDbLine
10
528
20
70
30
0
11
569.71137574079739
21
105
31
0
0
LINE
5
229
100
AcDbEntity
8
0
100
AcDbLine
10
528
20
70
30
0
11
594
21
70
31
0
0
LINE
5
230
100
AcDbEntity
8
0
100
AcDbLine
10
635.71137574079739
20
105.00000000000003
30
0
11
594
21
70
31
0
0
LINE
5
231
100
AcDbEntity
8
0
100
AcDbLine
10
594
20
140
30
0
11
660.00000000000011
21
140
31
0
0
LINE
5
232
100
AcDbEntity
8
0
100
AcDbLine
10
594
20
140
30
0
11
635.71137574079739
21
105
31
0
0
LINE
5
233
100
AcDbEntity
8
0
100
AcDbLine
10
635.71137574079739
20
105
30
0
11
701.71137574079739
21
105.00000000000003
31
0
0
LINE
5
234
100
AcDbEntity
8
0
100
AcDbLine
10
594
20
70
30
0
11
635.71137574079739
21
105
31
0
0
LINE
5
235
100
AcDbEntity
8
0
100
AcDbLine
10
594
20
70
30
0
11
660
21
70
31
0
0
LINE
5
236
100
AcDbEntity
8
0
100
AcDbLine
10
0
20
210
30
0
11
66.000000000000028
21
210
31
0
0
LINE
5
237
100
AcDbEntity
8
0
100
AcDbLine
10
107.71137574079737
20
175.00000000000003
30
0
11
66.000000000000028
21
210
31
0
0
LINE
5
238
100
AcDbEntity
8
0
100
AcDbLine
10
41.711375740797358
20
175
30
0
11
107.71137574079737
21
175.00000000000003
31
0
0
LINE
5
239
100
AcDbEntity
8
0
100
AcDbLine
10
0
20
140
30
0
11
66
21
140
31
0
0
LINE
5
240
100
AcDbEntity
8
0
100
AcDbLine
10
107.71137574079737
20
175.00000000000003
30
0
11
66
21
140
31
0
0
LINE
5
241
100
AcDbEntity
8
0
100
AcDbLine
10
66
20
210
30
0
11
132.00000000000003
21
210
31
0
0
LINE
5
242
100
AcDbEntity
8
0
100
AcDbLine
10
66
20
210
30
0
11
107.71137574079737
21
175
31
0
0
LINE
5
243
100
AcDbEntity
8
0
100
AcDbLine
10
173.71137574079737
20
175.00000000000003
30
0
11
132.00000000000003
21
210
31
0
0
LINE
5
244
100
AcDbEntity
8
0
100
AcDbLine
10
107.71137574079737
20
175
30
0
11
173.71137574079737
21
175.00000000000003
31
0
0
LINE
5
245
100
AcDbEntity
8
0
100
AcDbLine
10
66
20
140
30
0
11
107.71137574079737
21
175
31
0
0
LINE
5
246
100
AcDbEntity
8
0
100
AcDbLine
10
66
20
140
30
0
11
132
21
140
31
0
0
LINE
5
247
100
AcDbEntity
8
0
100
AcDbLine
10
173.71137574079737
20
175.00000000000003
30
0
11
132
21
140
31
0
0
LINE
5
248
100
AcDbEntity
8
0
100
AcDbLine
10
132
20
210
30
0
11
198.00000000000006
21
210
31
0
0
LINE
5
249
100
AcDbEntity
8
0
100
AcDbLine
10
132
20
210
30
0
11
173.71137574079737
21
175
31
0
0
LINE
5
250
100
AcDbEntity
8
0
100
AcDbLine
10
239.71137574079737
20
175.00000000000003
30
0
11
198.00000000000006
21
210
31
0
0
LINE
5
251
100
AcDbEntity
8
0
100
AcDbLine
10
173.71137574079737
20
175
30
0
11
239.71137574079737
21
175.00000000000003
31
0
0
LINE
5
252
100
AcDbEntity
8
0
100
AcDbLine
10
132
20
140
30
0
11
173.71137574079737
21
175
31
0
0
LINE
5
253
100
AcDbEntity
8
0
100
AcDbLine
10
132
20
140
30
0
11
198
21
140
31
0
0
LINE
5
254
100
AcDbEntity
8
0
100
AcDbLine
10
239.71137574079737
20
175.00000000000003
30
0
11
198
21
140
31
0
0
LINE
5
255
100
AcDbEntity
8
0
100
AcDbLine
10
198
20
210
30
0
11
264.00000000000006
21
210
31
0
0
LINE
5
256
100
AcDbEntity
8
0
100
AcDbLine
10
198
20
210
30
0
11
239.71137574079737
21
175
31
0
0
LINE
5
257
100
AcDbEntity
8
0
100
AcDbLine
10
305.71137574079734
20
175.00000000000003
30
0
11
264.00000000000006
21
210
31
0
0
LINE
5
258
100
AcDbEntity
8
0
100
AcDbLine
10
239.71137574079737
20
175
30
0
11
305.71137574079734
21
175.00000000000003
31
0
0
LINE
5
259
100
AcDbEntity
8
0
100
AcDbLine
10
198
20
140
30
0
11
239.71137574079737
21
175
31
0
0
LINE
5
260
100
AcDbEntity
8
0
100
AcDbLine
10
198
20
140
30
0
11
264
21
140
31
0
0
LINE
5
261
100
AcDbEntity
8
0
100
AcDbLine
10
305.71137574079734
20
175.00000000000003
30
0
11
264
21
140
31
0
0
LINE
5
262
100
AcDbEntity
8
0
100
AcDbLine
10
264
20
210
30
0
11
330.00000000000006
21
210
31
0
0
LINE
5
263
100
AcDbEntity
8
0
100
AcDbLine
10
264
20
210
30
0
11
305.71137574079739
21
175
31
0
0
LINE
5
264
100
AcDbEntity
8
0
100
AcDbLine
10
371.71137574079739
20
175.00000000000003
30
0
11
330.00000000000006
21
210
31
0
0
LINE
5
265
100
AcDbEntity
8
0
100
AcDbLine
10
305.71137574079739
20
175
30
0
11
371.71137574079739
21
175.00000000000003
31
0
0
LINE
5
266
100
AcDbEntity
8
0
100
AcDbLine
10
264
20
140
30
0
11
305.71137574079739
21
175
31
0
0
LINE
5
267
100
AcDbEntity
8
0
100
AcDbLine
10
264
20
140
30
0
11
330
21
140
31
0
0
LINE
5
268
100
AcDbEntity
8
0
100
AcDbLine
10
371.71137574079739
20
175.00000000000003
30
0
11
330
21
140
31
0
0
LINE
5
269
100
AcDbEntity
8
0
100
AcDbLine
10
330
20
210
30
0
11
396
21
210
31
0
0
LINE
5
270
100
AcDbEntity
8
0
100
AcDbLine
10
330
20
210
30
0
11
371.71137574079739
21
175
31
0
0
LINE
5
271
100
AcDbEntity
8
0
100
AcDbLine
10
437.71137574079739
20
175.00000000000003
30
0
11
396
21
210
31
0
0
LINE
5
272
100
AcDbEntity
8
0
100
AcDbLine
10
371.71137574079739
20
175
30
0
11
437.71137574079739
21
175.00000000000003
31
0
0
LINE
5
273
100
AcDbEntity
8
0
100
AcDbLine
10
330
20
140
30
0
11
371.71137574079739
21
175
31
0
0
LINE
5
274
100
AcDbEntity
8
0
100
AcDbLine
10
330
20
140
30
0
11
396
21
140
31
0
0
LINE
5
275
100
AcDbEntity
8
0
100
AcDbLine
10
437.71137574079739
20
175.00000000000003
30
0
11
396
21
140
31
0
0
LINE
5
276
100
AcDbEntity
8
0
100
AcDbLine
10
396
20
210
30
0
11
462
21
210
31
0
0
LINE
5
277
100
AcDbEntity
8
0
100
AcDbLine
10
396
20
210
30
0
11
437.71137574079739
21
175
31
0
0
LINE
5
278
100
AcDbEntity
8
0
100
AcDbLine
10
503.71137574079739
20
175.00000000000003
30
0
11
462
21
210
31
0
0
LINE
5
279
100
AcDbEntity
8
0
100
AcDbLine
10
437.71137574079739
20
175
30
0
11
503.71137574079739
21
175.00000000000003
31
0
0
LINE
5
280
100
AcDbEntity
8
0
100
AcDbLine
10
396
20
140
30
0
11
437.71137574079739
21
175
31
0
0
LINE
5
281
100
AcDbEntity
8
0
100
AcDbLine
10
396
20
140
30
0
11
462
21
140
31
0
0
LINE
5
282
100
AcDbEntity
8
0
100
AcDbLine
10
503.71137574079739
20
175.00000000000003
30
0
11
462
21
140
31
0
0
LINE
5
283
100
AcDbEntity
8
0
100
AcDbLine
10
462
20
210
30
0
11
528
21
210
31
0
0
LINE
5
284
100
AcDbEntity
8
0
100
AcDbLine
10
462
20
210
30
0
11
503.71137574079739
21
175
31
0
0
LINE
5
285
100
AcDbEntity
8
0
100
AcDbLine
10
569.71137574079739
20
175.00000000000003
30
0
11
528
21
210
31
0
0
LINE
5
286
100
AcDbEntity
8
0
100
AcDbLine
10
503.71137574079739
20
175
30
0
11
569.71137574079739
21
175.00000000000003
31
0
0
LINE
5
287
100
AcDbEntity
8
0
100
AcDbLine
10
462
20
140
30
0
11
503.71137574079739
21
175
31
0
0
LINE
5
288
100
AcDbEntity
8
0
100
AcDbLine
10
462
20
140
30
0
11
528
21
140
31
0
0
LINE
5
289
100
AcDbEntity
8
0
100
AcDbLine
10
569.71137574079739
20
175.00000000000003
30
0
11
528
21
140
31
0
0
LINE
5
290
100
AcDbEntity
8
0
100
AcDbLine
10
528
20
210
30
0
11
594
21
210
31
0
0
LINE
5
291
100
AcDbEntity
8
0
100
AcDbLine
10
528
20
210
30
0
11
569.71137574079739
21
175
31
0
0
LINE
5
292
100
AcDbEntity
8
0
100
AcDbLine
10
635.71137574079739
20
175.00000000000003
30
0
11
594
21
210
31
0
0
LINE
5
293
100
AcDbEntity
8
0
100
AcDbLine
10
569.71137574079739
20
175
30
0
11
635.71137574079739
21
175.00000000000003
31
0
0
LINE
5
294
100
AcDbEntity
8
0
100
AcDbLine
10
528
20
140
30
0
11
569.71137574079739
21
175
31
0
0
LINE
5
295
100
AcDbEntity
8
0
100
AcDbLine
10
528
20
140
30
0
11
594
21
140
31
0
0
LINE
5
296
100
AcDbEntity
8
0
100
AcDbLine
10
635.71137574079739
20
175.00000000000003
30
0
11
594
21
140
31
0
0
LINE
5
297
100
AcDbEntity
8
0
100
AcDbLine
10
594
20
210
30
0
11
660.00000000000011
21
210
31
0
0
LINE
5
298
100
AcDbEntity
8
0
100
AcDbLine
10
594
20
210
30
0
11
635.71137574079739
21
175
31
0
0
LINE
5
299
100
AcDbEntity
8
0
100
AcDbLine
10
635.71137574079739
20
175
30
0
11
701.71137574079739
21
175.00000000000003
31
0
0
LINE
5
300
100
AcDbEntity
8
0
100
AcDbLine
10
594
20
140
30
0
11
635.71137574079739
21
175
31
0
0
LINE
5
301
100
AcDbEntity
8
0
100
AcDbLine
10
594
20
140
30
0
11
660
21
140
31
0
0
LINE
5
302
100
AcDbEntity
8
0
100
AcDbLine
10
0
20
280
30
0
11
66.000000000000028
21
280
31
0
0
LINE
5
303
100
AcDbEntity
8
0
100
AcDbLine
10
107.71137574079737
20
245.00000000000003
30
0
11
66.000000000000028
21
280
31
0
0
LINE
5
304
100
AcDbEntity
8
0
100
AcDbLine
10
41.711375740797358
20
245
30
0
11
107.71137574079737
21
245.00000000000003
31
0
0
LINE
5
305
100
AcDbEntity
8
0
100
AcDbLine
10
0
20
210
30
0
11
66
21
210
31
0
0
LINE
5
306
100
AcDbEntity
8
0
100
AcDbLine
10
107.71137574079737
20
245.00000000000003
30
0
11
66
21
210
31
0
0
LINE
5
307
100
AcDbEntity
8
0
100
AcDbLine
10
66
20
280
30
0
11
132.00000000000003
21
280
31
0
0
LINE
5
308
100
AcDbEntity
8
0
100
AcDbLine
10
66
20
280
30
0
11
107.71137574079737
21
245
31
0
0
LINE
5
309
100
AcDbEntity
8
0
100
AcDbLine
10
173.71137574079737
20
245.00000000000003
30
0
11
132.00000000000003
21
280
31
0
0
LINE
5
310
100
AcDbEntity
8
0
100
AcDbLine
10
107.71137574079737
20
245
30
0
11
173.71137574079737
21
245.00000000000003
31
0
0
LINE
5
311
100
AcDbEntity
8
0
100
AcDbLine
10
66
20
210
30
0
11
107.71137574079737
21
245
31
0
0
LINE
5
312
100
AcDbEntity
8
0
100
AcDbLine
10
66
20
210
30
0
11
132
21
210
31
0
0
LINE
5
313
100
AcDbEntity
8
0
100
AcDbLine
10
173.71137574079737
20
245.00000000000003
30
0
11
132
21
210
31
0
0
LINE
5
314
100
AcDbEntity
8
0
100
AcDbLine
10
132
20
280
30
0
11
198.00000000000006
21
280
31
0
0
LINE
5
315
100
AcDbEntity
8
0
100
AcDbLine
10
132
20
280
30
0
11
173.71137574079737
21
245
31
0
0
LINE
5
316
100
AcDbEntity
8
0
100
AcDbLine
10
239.71137574079737
20
245.00000000000003
30
0
11
198.00000000000006
21
280
31
0
0
LINE
5
317
100
AcDbEntity
8
0
100
AcDbLine
10
173.71137574079737
20
245
30
0
11
239.71137574079737
21
245.00000000000003
31
0
0
LINE
5
318
100
AcDbEntity
8
0
100
AcDbLine
10
132
20
210
30
0
11
173.71137574079737
21
245
31
0
0
LINE
5
319
100
AcDbEntity
8
0
100
AcDbLine
10
132
20
210
30
0
11
198
21
210
31
0
0
LINE
5
320
100
AcDbEntity
8
0
100
AcDbLine
10
239.71137574079737
20
245.00000000000003
30
0
11
198
21
210
31
0
0
LINE
5
321
100
AcDbEntity
8
0
100
AcDbLine
10
198
20
280
30
0
11
264.00000000000006
21
280
31
0
0
LINE
5
322
100
AcDbEntity
8
0
100
AcDbLine
10
198
20
280
30
0
11
239.71137574079737
21
245
31
0
0
LINE
5
323
100
AcDbEntity
8
0
100
AcDbLine
10
305.71137574079734
20
245.00000000000003
30
0
11
264.00000000000006
21
280
31
0
0
LINE
5
324
100
AcDbEntity
8
0
100
AcDbLine
10
239.71137574079737
20
245
30
0
11
305.71137574079734
21
245.00000000000003
31
0
0
LINE
5
325
100
AcDbEntity
8
0
100
AcDbLine
10
198
20
210
30
0
11
239.71137574079737
21
245
31
0
0
LINE
5
326
100
AcDbEntity
8
0
100
AcDbLine
10
198
20
210
30
0
11
264
21
210
31
0
0
LINE
5
327
100
AcDbEntity
8
0
100
AcDbLine
10
305.71137574079734
20
245.00000000000003
30
0
11
264
21
210
31
0
0
LINE
5
328
100
AcDbEntity
8
0
100
AcDbLine
10
264
20
280
30
0
11
330.00000000000006
21
280
31
0
0
LINE
5
329
100
AcDbEntity
8
0
100
AcDbLine
10
264
20
280
30
0
11
305.71137574079739
21
245
31
0
0
LINE
5
330
100
AcDbEntity
8
0
100
AcDbLine
10
371.71137574079739
20
245.00000000000003
30
0
11
330.00000000000006
21
280
31
0
0
LINE
5
331
100
AcDbEntity
8
0
100
AcDbLine
10
305.71137574079739
20
245
30
0
11
371.71137574079739
21
245.00000000000003
31
0
0
LINE
5
332
100
AcDbEntity
8
0
100
AcDbLine
10
264
20
210
30
0
11
305.71137574079739
21
245
31
0
0
LINE
5
333
100
AcDbEntity
8
0
100
AcDbLine
10
264
20
210
30
0
11
330
21
210
31
0
0
LINE
5
334
100
AcDbEntity
8
0
100
AcDbLine
10
371.71137574079739
20
245.00000000000003
30
0
11
330
21
210
31
0
0
LINE
5
335
100
AcDbEntity
8
0
100
AcDbLine
10
330
20
280
30
0
11
396
21
280
31
0
0
LINE
5
336
100
AcDbEntity
8
0
100
AcDbLine
10
330
20
280
30
0
11
371.71137574079739
21
245
31
0
0
LINE
5
337
100
AcDbEntity
8
0
100
AcDbLine
10
437.71137574079739
20
245.00000000000003
30
0
11
396
21
280
31
0
0
LINE
5
338
100
AcDbEntity
8
0
100
AcDbLine
10
371.71137574079739
20
245
30
0
11
437.71137574079739
21
245.00000000000003
31
0
0
LINE
5
339
100
AcDbEntity
8
0
100
AcDbLine
10
330
20
210
30
0
11
371.71137574079739
21
245
31
0
0
LINE
5
340
100
AcDbEntity
8
0
100
AcDbLine
10
330
20
210
30
0
11
396
21
210
31
0
0
LINE
5
341
100
AcDbEntity
8
0
100
AcDbLine
10
437.71137574079739
20
245.00000000000003
30
0
11
396
21
210
31
0
0
LINE
5
342
100
AcDbEntity
8
0
100
AcDbLine
10
396
20
280
30
0
11
462
21
280
31
0
0
LINE
5
343
100
AcDbEntity
8
0
100
AcDbLine
10
396
20
280
30
0
11
437.71137574079739
21
245
31
0
0
LINE
5
344
100
AcDbEntity
8
0
100
AcDbLine
10
503.71137574079739
20
245.00000000000003
30
0
11
462
21
280
31
0
0
LINE
5
345
100
AcDbEntity
8
0
100
AcDbLine
10
437.71137574079739
20
245
30
0
11
503.71137574079739
21
245.00000000000003
31
0
0
LINE
5
346
100
AcDbEntity
8
0
100
AcDbLine
10
396
20
210
30
0
11
437.71137574079739
21
245
31
0
0
LINE
5
347
100
AcDbEntity
8
0
100
AcDbLine
10
396
20
210
30
0
11
462
21
210
31
0
0
LINE
5
348
100
AcDbEntity
8
0
100
AcDbLine
10
503.71137574079739
20
245.00000000000003
30
0
11
462
21
210
31
0
0
LINE
5
349
100
AcDbEntity
8
0
100
AcDbLine
10
462
20
280
30
0
11
528
21
280
31
0
0
LINE
5
350
100
AcDbEntity
8
0
100
AcDbLine
10
462
20
280
30
0
11
503.71137574079739
21
245
31
0
0
LINE
5
351
100
AcDbEntity
8
0
100
AcDbLine
10
569.71137574079739
20
245.00000000000003
30
0
11
528
21
280
31
0
0
LINE
5
352
100
AcDbEntity
8
0
100
AcDbLine
10
503.71137574079739
20
245
30
0
11
569.71137574079739
21
245.00000000000003
31
0
0
LINE
5
353
100
AcDbEntity
8
0
100
AcDbLine
10
462
20
210
30
0
11
503.71137574079739
21
245
31
0
0
LINE
5
354
100
AcDbEntity
8
0
100
AcDbLine
10
462
20
210
30
0
11
528
21
210
31
0
0
LINE
5
355
100
AcDbEntity
8
0
100
AcDbLine
10
569.71137574079739
20
245.00000000000003
30
0
11
528
21
210
31
0
0
LINE
5
356
100
AcDbEntity
8
0
100
AcDbLine
10
528
20
280
30
0
11
594
21
280
31
0
0
LINE
5
357
100
AcDbEntity
8
0
100
AcDbLine
10
528
20
280
30
0
11
569.71137574079739
21
245
31
0
0
LINE
5
358
100
AcDbEntity
8
0
100
AcDbLine
10
635.71137574079739
20
245.00000000000003
30
0
11
594
21
280
31
0
0
LINE
5
359
100
AcDbEntity
8
0
100
AcDbLine
10
569.71137574079739
20
245
30
0
11
635.71137574079739
21
245.00000000000003
31
0
0
LINE
5
360
100
AcDbEntity
8
0
100
AcDbLine
10
528
20
210
30
0
11
569.71137574079739
21
245
31
0
0
LINE
5
361
100
AcDbEntity
8
0
100
AcDbLine
10
528
20
210
30
0
11
594
21
210
31
0
0
LINE
5
362
100
AcDbEntity
8
0
100
AcDbLine
10
635.71137574079739
20
245.00000000000003
30
0
11
594
21
210
31
0
0
LINE
5
363
100
AcDbEntity
8
0
100
AcDbLine
10
594
20
280
30
0
11
660.00000000000011
21
280
31
0
0
LINE
5
364
100
AcDbEntity
8
0
100
AcDbLine
10
594
20
280
30
0
11
635.71137574079739
21
245
31
0
0
LINE
5
365
100
AcDbEntity
8
0
100
AcDbLine
10
635.71137574079739
20
245
30
0
11
701.71137574079739
21
245.00000000000003
31
0
0
LINE
5
366
100
AcDbEntity
8
0
100
AcDbLine
10
594
20
210
30
0
11
635.71137574079739
21
245
31
0
0
LINE
5
367
100
AcDbEntity
8
0
100
AcDbLine
10
594
20
210
30
0
11
660
21
210
31
0
0
LINE
5
368
100
AcDbEntity
8
0
100
AcDbLine
10
0
20
350
30
0
11
66.000000000000028
21
350
31
0
0
LINE
5
369
100
AcDbEntity
8
0
100
AcDbLine
10
107.71137574079737
20
315.00000000000006
30
0
11
66.000000000000028
21
350
31
0
0
LINE
5
370
100
AcDbEntity
8
0
100
AcDbLine
10
41.711375740797358
20
315
30
0
11
107.71137574079737
21
315.00000000000006
31
0
0
LINE
5
371
100
AcDbEntity
8
0
100
AcDbLine
10
0
20
280
30
0
11
66
21
280
31
0
0
LINE
5
372
100
AcDbEntity
8
0
100
AcDbLine
10
107.71137574079737
20
315.00000000000006
30
0
11
66
21
280
31
0
0
LINE
5
373
100
AcDbEntity
8
0
100
AcDbLine
10
66
20
350
30
0
11
132.00000000000003
21
350
31
0
0
LINE
5
374
100
AcDbEntity
8
0
100
AcDbLine
10
66
20
350
30
0
11
107.71137574079737
21
315
31
0
0
LINE
5
375
100
AcDbEntity
8
0
100
AcDbLine
10
173.71137574079737
20
315.00000000000006
30
0
11
132.00000000000003
21
350
31
0
0
LINE
5
376
100
AcDbEntity
8
0
100
AcDbLine
10
107.71137574079737
20
315
30
0
11
173.71137574079737
21
315.00000000000006
31
0
0
LINE
5
377
100
AcDbEntity
8
0
100
AcDbLine
10
66
20
280
30
0
11
107.71137574079737
21
315
31
0
0
LINE
5
378
100
AcDbEntity
8
0
100
AcDbLine
10
66
20
280
30
0
11
132
21
280
31
0
0
LINE
5
379
100
AcDbEntity
8
0
100
AcDbLine
10
173.71137574079737
20
315.00000000000006
30
0
11
132
21
280
31
0
0
LINE
5
380
100
AcDbEntity
8
0
100
AcDbLine
10
132
20
350
30
0
11
198.00000000000006
21
350
31
0
0
LINE
5
381
100
AcDbEntity
8
0
100
AcDbLine
10
132
20
350
30
0
11
173.71137574079737
21
315
31
0
0
LINE
5
382
100
AcDbEntity
8
0
100
AcDbLine
10
239.71137574079737
20
315.00000000000006
30
0
11
198.00000000000006
21
350
31
0
0
LINE
5
383
100
AcDbEntity
8
0
100
AcDbLine
10
173.71137574079737
20
315
30
0
11
239.71137574079737
21
315.00000000000006
31
0
0
LINE
5
384
100
AcDbEntity
8
0
100
AcDbLine
10
132
20
280
30
0
11
173.71137574079737
21
315
31
0
0
LINE
5
385
100
AcDbEntity
8
0
100
AcDbLine
10
132
20
280
30
0
11
198
21
280
31
0
0
LINE
5
386
100
AcDbEntity
8
0
100
AcDbLine
10
239.71137574079737
20
315.00000000000006
30
0
11
198
21
280
31
0
0
LINE
5
387
100
AcDbEntity
8
0
100
AcDbLine
10
198
20
350
30
0
11
264.00000000000006
21
350
31
0
0
LINE
5
388
100
AcDbEntity
8
0
100
AcDbLine
10
198
20
350
30
0
11
239.71137574079737
21
315
31
0
0
LINE
5
389
100
AcDbEntity
8
0
100
AcDbLine
10
305.71137574079734
20
315.00000000000006
30
0
11
264.00000000000006
21
350
31
0
0
LINE
5
390
100
AcDbEntity
8
0
100
AcDbLine
10
239.71137574079737
20
315
30
0
11
305.71137574079734
21
315.00000000000006
31
0
0
LINE
5
391
100
AcDbEntity
8
0
100
AcDbLine
10
198
20
280
30
0
11
239.71137574079737
21
315
31
0
0
LINE
5
392
100
AcDbEntity
8
0
100
AcDbLine
10
198
20
280
30
0
11
264
21
280
31
0
0
LINE
5
393
100
AcDbEntity
8
0
100
AcDbLine
10
305.71137574079734
20
315.00000000000006
30
0
11
264
21
280
31
0
0
LINE
5
394
100
AcDbEntity
8
0
100
AcDbLine
10
264
20
350
30
0
11
330.00000000000006
21
350
31
0
0
LINE
5
395
100
AcDbEntity
8
0
100
AcDbLine
10
264
20
350
30
0
11
305.71137574079739
21
315
31
0
0
LINE
5
396
100
AcDbEntity
8
0
100
AcDbLine
10
371.71137574079739
20
315.00000000000006
30
0
11
330.00000000000006
21
350
31
0
0
LINE
5
397
100
AcDbEntity
8
0
100
AcDbLine
10
305.71137574079739
20
315
30
0
11
371.71137574079739
21
315.00000000000006
31
0
0
LINE
5
398
100
AcDbEntity
8
0
100
AcDbLine
10
264
20
280
30
0
11
305.71137574079739
21
315
31
0
0
LINE
5
399
100
AcDbEntity
8
0
100
AcDbLine
10
264
20
280
30
0
11
330
21
280
31
0
0
LINE
5
400
100
AcDbEntity
8
0
100
AcDbLine
10
371.71137574079739
20
315.00000000000006
30
0
11
330
21
280
31
0
0
LINE
5
401
100
AcDbEntity
8
0
100
AcDbLine
10
330
20
350
30
0
11
396
21
350
31
0
0
LINE
5
402
100
AcDbEntity
8
0
100
AcDbLine
10
330
20
350
30
0
11
371.71137574079739
21
315
31
0
0
LINE
5
403
100
AcDbEntity
8
0
100
AcDbLine
10
437.71137574079739
20
315.00000000000006
30
0
11
396
21
350
31
0
0
LINE
5
404
100
AcDbEntity
8
0
100
AcDbLine
10
371.71137574079739
20
315
30
0
11
437.71137574079739
21
315.00000000000006
31
0
0
LINE
5
405
100
AcDbEntity
8
0
100
AcDbLine
10
330
20
280
30
0
11
371.71137574079739
21
315
31
0
0
LINE
5
406
100
AcDbEntity
8
0
100
AcDbLine
10
330
20
280
30
0
11
396
21
280
31
0
0
LINE
5
407
100
AcDbEntity
8
0
100
AcDbLine
10
437.71137574079739
20
315.00000000000006
30
0
11
396
21
280
31
0
0
LINE
5
408
100
AcDbEntity
8
0
100
AcDbLine
10
396
20
350
30
0
11
462
21
350
31
0
0
LINE
5
409
100
AcDbEntity
8
0
100
AcDbLine
10
396
20
350
30
0
11
437.71137574079739
21
315
31
0
0
LINE
5
410
100
AcDbEntity
8
0
100
AcDbLine
10
503.71137574079739
20
315.00000000000006
30
0
11
462
21
350
31
0
0
LINE
5
411
100
AcDbEntity
8
0
100
AcDbLine
10
437.71137574079739
20
315
30
0
11
503.71137574079739
21
315.00000000000006
31
0
0
LINE
5
412
100
AcDbEntity
8
0
100
AcDbLine
10
396
20
280
30
0
11
437.71137574079739
21
315
31
0
0
LINE
5
413
100
AcDbEntity
8
0
100
AcDbLine
10
396
20
280
30
0
11
462
21
280
31
0
0
LINE
5
414
100
AcDbEntity
8
0
100
AcDbLine
10
503.71137574079739
20
315.00000000000006
30
0
11
462
21
280
31
0
0
LINE
5
415
100
AcDbEntity
8
0
100
AcDbLine
10
462
20
350
30
0
11
528
21
350
31
0
0
LINE
5
416
100
AcDbEntity
8
0
100
AcDbLine
10
462
20
350
30
0
11
503.71137574079739
21
315
31
0
0
LINE
5
417
100
AcDbEntity
8
0
100
AcDbLine
10
569.71137574079739
20
315.00000000000006
30
0
11
528
21
350
31
0
0
LINE
5
418
100
AcDbEntity
8
0
100
AcDbLine
10
503.71137574079739
20
315
30
0
11
569.71137574079739
21
315.00000000000006
31
0
0
LINE
5
419
100
AcDbEntity
8
0
100
AcDbLine
10
462
20
280
30
0
11
503.71137574079739
21
315
31
0
0
LINE
5
420
100
AcDbEntity
8
0
100
AcDbLine
10
462
20
280
30
0
11
528
21
280
31
0
0
LINE
5
421
100
AcDbEntity
8
0
100
AcDbLine
10
569.71137574079739
20
315.00000000000006
30
0
11
528
21
280
31
0
0
LINE
5
422
100
AcDbEntity
8
0
100
AcDbLine
10
528
20
350
30
0
11
594
21
350
31
0
0
LINE
5
423
100
AcDbEntity
8
0
100
AcDbLine
10
528
20
350
30
0
11
569.71137574079739
21
315
31
0
0
LINE
5
424
100
AcDbEntity
8
0
100
AcDbLine
10
635.71137574079739
20
315.00000000000006
30
0
11
594
21
350
31
0
0
LINE
5
425
100
AcDbEntity
8
0
100
AcDbLine
10
569.71137574079739
20
315
30
0
11
635.71137574079739
21
315.00000000000006
31
0
0
LINE
5
426
100
AcDbEntity
8
0
100
AcDbLine
10
528
20
280
30
0
11
569.71137574079739
21
315
31
0
0
LINE
5
427
100
AcDbEntity
8
0
100
AcDbLine
10
528
20
280
30
0
11
594
21
280
31
0
0
LINE
5
428
100
AcDbEntity
8
0
100
AcDbLine
10
635.71137574079739
20
315.00000000000006
30
0
11
594
21
280
31
0
0
LINE
5
429
100
AcDbEntity
8
0
100
AcDbLine
10
594
20
350
30
0
11
660.00000000000011
21
350
31
0
0
LINE
5
430
100
AcDbEntity
8
0
100
AcDbLine
10
594
20
350
30
0
11
635.71137574079739
21
315
31
0
0
LINE
5
431
100
AcDbEntity
8
0
100
AcDbLine
10
635.71137574079739
20
315
30
0
11
701.71137574079739
21
315.00000000000006
31
0
0
LINE
5
432
100
AcDbEntity
8
0
100
AcDbLine
10
594
20
280
30
0
11
635.71137574079739
21
315
31
0
0
LINE
5
433
100
AcDbEntity
8
0
100
AcDbLine
10
594
20
280
30
0
11
660
21
280
31
0
0
LINE
5
434
100
AcDbEntity
8
0
100
AcDbLine
10
0
20
420
30
0
11
66.000000000000028
21
420
31
0
0
LINE
5
435
100
AcDbEntity
8
0
100
AcDbLine
10
107.71137574079737
20
385
30
0
11
66.000000000000028
21
420
31
0
0
LINE
5
436
100
AcDbEntity
8
0
100
AcDbLine
10
41.711375740797358
20
385
30
0
11
107.71137574079737
21
385
31
0
0
LINE
5
437
100
AcDbEntity
8
0
100
AcDbLine
10
0
20
350
30
0
11
66
21
350
31
0
0
LINE
5
438
100
AcDbEntity
8
0
100
AcDbLine
10
107.71137574079737
20
385
30
0
11
66
21
350
31
0
0
LINE
5
439
100
AcDbEntity
8
0
100
AcDbLine
10
66
20
420
30
0
11
132.00000000000003
21
420
31
0
0
LINE
5
440
100
AcDbEntity
8
0
100
AcDbLine
10
66
20
420
30
0
11
107.71137574079737
21
385
31
0
0
LINE
5
441
100
AcDbEntity
8
0
100
AcDbLine
10
173.71137574079737
20
385
30
0
11
132.00000000000003
21
420
31
0
0
LINE
5
442
100
AcDbEntity
8
0
100
AcDbLine
10
107.71137574079737
20
385
30
0
11
173.71137574079737
21
385
31
0
0
LINE
5
443
100
AcDbEntity
8
0
100
AcDbLine
10
66
20
350
30
0
11
107.71137574079737
21
385
31
0
0
LINE
5
444
100
AcDbEntity
8
0
100
AcDbLine
10
66
20
350
30
0
11
132
21
350
31
0
0
LINE
5
445
100
AcDbEntity
8
0
100
AcDbLine
10
173.71137574079737
20
385
30
0
11
132
21
350
31
0
0
LINE
5
446
100
AcDbEntity
8
0
100
AcDbLine
10
132
20
420
30
0
11
198.00000000000006
21
420
31
0
0
LINE
5
447
100
AcDbEntity
8
0
100
AcDbLine
10
132
20
420
30
0
11
173.71137574079737
21
385
31
0
0
LINE
5
448
100
AcDbEntity
8
0
100
AcDbLine
10
239.71137574079737
20
385
30
0
11
198.00000000000006
21
420
31
0
0
LINE
5
449
100
AcDbEntity
8
0
100
AcDbLine
10
173.71137574079737
20
385
30
0
11
239.71137574079737
21
385
31
0
0
LINE
5
450
100
AcDbEntity
8
0
100
AcDbLine
10
132
20
350
30
0
11
173.71137574079737
21
385
31
0
0
LINE
5
451
100
AcDbEntity
8
0
100
AcDbLine
10
132
20
350
30
0
11
198
21
350
31
0
0
LINE
5
452
100
AcDbEntity
8
0
100
AcDbLine
10
239.71137574079737
20
385
30
0
11
198
21
350
31
0
0
LINE
5
453
100
AcDbEntity
8
0
100
AcDbLine
10
198
20
420
30
0
11
264.00000000000006
21
420
31
0
0
LINE
5
454
100
AcDbEntity
8
0
100
AcDbLine
10
198
20
420
30
0
11
239.71137574079737
21
385
31
0
0
LINE
5
455
100
AcDbEntity
8
0
100
AcDbLine
10
305.71137574079734
20
385
30
0
11
264.00000000000006
21
420
31
0
0
LINE
5
456
100
AcDbEntity
8
0
100
AcDbLine
10
239.71137574079737
20
385
30
0
11
305.71137574079734
21
385
31
0
0
LINE
5
457
100
AcDbEntity
8
0
100
AcDbLine
10
198
20
350
30
0
11
239.71137574079737
21
385
31
0
0
LINE
5
458
100
AcDbEntity
8
0
100
AcDbLine
10
198
20
350
30
0
11
264
21
350
31
0
0
LINE
5
459
100
AcDbEntity
8
0
100
AcDbLine
10
305.71137574079734
20
385
30
0
11
264
21
350
31
0
0
LINE
5
460
100
AcDbEntity
8
0
100
AcDbLine
10
264
20
420
30
0
11
330.00000000000006
21
420
31
0
0
LINE
5
461
100
AcDbEntity
8
0
100
AcDbLine
10
264
20
420
30
0
11
305.71137574079739
21
385
31
0
0
LINE
5
462
100
AcDbEntity
8
0
100
AcDbLine
10
371.71137574079739
20
385
30
0
11
330.00000000000006
21
420
31
0
0
LINE
5
463
100
AcDbEntity
8
0
100
AcDbLine
10
305.71137574079739
20
385
30
0
11
371.71137574079739
21
385
31
0
0
LINE
5
464
100
AcDbEntity
8
0
100
AcDbLine
10
264
20
350
30
0
11
305.71137574079739
21
385
31
0
0
LINE
5
465
100
AcDbEntity
8
0
100
AcDbLine
10
264
20
350
30
0
11
330
21
350
31
0
0
LINE
5
466
100
AcDbEntity
8
0
100
AcDbLine
10
371.71137574079739
20
385
30
0
11
330
21
350
31
0
0
LINE
5
467
100
AcDbEntity
8
0
100
AcDbLine
10
330
20
420
30
0
11
396
21
420
31
0
0
LINE
5
468
100
AcDbEntity
8
0
100
AcDbLine
10
330
20
420
30
0
11
371.71137574079739
21
385
31
0
0
LINE
5
469
100
AcDbEntity
8
0
100
AcDbLine
10
437.71137574079739
20
385
30
0
11
396
21
420
31
0
0
LINE
5
470
100
AcDbEntity
8
0
100
AcDbLine
10
371.71137574079739
20
385
30
0
11
437.71137574079739
21
385
31
0
0
LINE
5
471
100
AcDbEntity
8
0
100
AcDbLine
10
330
20
350
30
0
11
371.71137574079739
21
385
31
0
0
LINE
5
472
100
AcDbEntity
8
0
100
AcDbLine
10
330
20
350
30
0
11
396
21
350
31
0
0
LINE
5
473
100
AcDbEntity
8
0
100
AcDbLine
10
437.71137574079739
20
385
30
0
11
396
21
350
31
0
0
LINE
5
474
100
AcDbEntity
8
0
100
AcDbLine
10
396
20
420
30
0
11
462
21
420
31
0
0
LINE
5
475
100
AcDbEntity
8
0
100
AcDbLine
10
396
20
420
30
0
11
437.71137574079739
21
385
31
0
0
LINE
5
476
100
AcDbEntity
8
0
100
AcDbLine
10
503.71137574079739
20
385
30
0
11
462
21
420
31
0
0
LINE
5
477
100
AcDbEntity
8
0
100
AcDbLine
10
437.71137574079739
20
385
30
0
11
503.71137574079739
21
385
31
0
0
LINE
5
478
100
AcDbEntity
8
0
100
AcDbLine
10
396
20
350
30
0
11
437.71137574079739
21
385
31
0
0
LINE
5
479
100
AcDbEntity
8
0
100
AcDbLine
10
396
20
350
30
0
11
462
21
350
31
0
0
LINE
5
480
100
AcDbEntity
8
0
100
AcDbLine
10
503.71137574079739
20
385
30
0
11
462
21
350
31
0
0
LINE
5
481
100
AcDbEntity
8
0
100
AcDbLine
10
462
20
420
30
0
11
528
21
420
31
0
0
LINE
5
482
100
AcDbEntity
8
0
100
AcDbLine
10
462
20
420
30
0
11
503.71137574079739
21
385
31
0
0
LINE
5
483
100
AcDbEntity
8
0
100
AcDbLine
10
569.71137574079739
20
385
30
0
11
528
21
420
31
0
0
LINE
5
484
100
AcDbEntity
8
0
100
AcDbLine
10
503.71137574079739
20
385
30
0
11
569.71137574079739
21
385
31
0
0
LINE
5
485
100
AcDbEntity
8
0
100
AcDbLine
10
462
20
350
30
0
11
503.71137574079739
21
385
31
0
0
LINE
5
486
100
AcDbEntity
8
0
100
AcDbLine
10
462
20
350
30
0
11
528
21
350
31
0
0
LINE
5
487
100
AcDbEntity
8
0
100
AcDbLine
10
569.71137574079739
20
385
30
0
11
528
21
350
31
0
0
LINE
5
488
100
AcDbEntity
8
0
100
AcDbLine
10
528
20
420
30
0
11
594
21
420
31
0
0
LINE
5
489
100
AcDbEntity
8
0
100
AcDbLine
10
528
20
420
30
0
11
569.71137574079739
21
385
31
0
0
LINE
5
490
100
AcDbEntity
8
0
100
AcDbLine
10
635.71137574079739
20
385
30
0
11
594
21
420
31
0
0
LINE
5
491
100
AcDbEntity
8
0
100
AcDbLine
10
569.71137574079739
20
385
30
0
11
635.71137574079739
21
385
31
0
0
LINE
5
492
100
AcDbEntity
8
0
100
AcDbLine
10
528
20
350
30
0
11
569.71137574079739
21
385
31
0
0
LINE
5
493
100
AcDbEntity
8
0
100
AcDbLine
10
528
20
350
30
0
11
594
21
350
31
0
0
LINE
5
494
100
AcDbEntity
8
0
100
AcDbLine
10
635.71137574079739
20
385
30
0
11
594
21
350
31
0
0
LINE
5
495
100
AcDbEntity
8
0
100
AcDbLine
10
594
20
420
30
0
11
660.00000000000011
21
420
31
0
0
LINE
5
496
100
AcDbEntity
8
0
100
AcDbLine
10
594
20
420
30
0
11
635.71137574079739
21
385
31
0
0
LINE
5
497
100
AcDbEntity
8
0
100
AcDbLine
10
635.71137574079739
20
385
30
0
11
701.71137574079739
21
385
31
0
0
LINE
5
498
100
AcDbEntity
8
0
100
AcDbLine
10
594
20
350
30
0
11
635.71137574079739
21
385
31
0
0
LINE
5
499
100
AcDbEntity
8
0
100
AcDbLine
10
594
20
350
30
0
11
660
21
350
31
0
0
LINE
5
500
100
AcDbEntity
8
0
100
AcDbLine
10
0
20
490
30
0
11
66.000000000000028
21
490
31
0
0
LINE
5
501
100
AcDbEntity
8
0
100
AcDbLine
10
107.71137574079737
20
455
30
0
11
66.000000000000028
21
490
31
0
0
LINE
5
502
100
AcDbEntity
8
0
100
AcDbLine
10
41.711375740797358
20
455
30
0
11
107.71137574079737
21
455
31
0
0
LINE
5
503
100
AcDbEntity
8
0
100
AcDbLine
10
0
20
420
30
0
11
66
21
420
31
0
0
LINE
5
504
100
AcDbEntity
8
0
100
AcDbLine
10
107.71137574079737
20
455
30
0
11
66
21
420
31
0
0
LINE
5
505
100
AcDbEntity
8
0
100
AcDbLine
10
66
20
490
30
0
11
132.00000000000003
21
490
31
0
0
LINE
5
506
100
AcDbEntity
8
0
100
AcDbLine
10
66
20
490
30
0
11
107.71137574079737
21
455
31
0
0
LINE
5
507
100
AcDbEntity
8
0
100
AcDbLine
10
173.71137574079737
20
455
30
0
11
132.00000000000003
21
490
31
0
0
LINE
5
508
100
AcDbEntity
8
0
100
AcDbLine
10
107.71137574079737
20
455
30
0
11
173.71137574079737
21
455
31
0
0
LINE
5
509
100
AcDbEntity
8
0
100
AcDbLine
10
66
20
420
30
0
11
107.71137574079737
21
455
31
0
0
LINE
5
510
100
AcDbEntity
8
0
100
AcDbLine
10
66
20
420
30
0
11
132
21
420
31
0
0
LINE
5
511
100
AcDbEntity
8
0
100
AcDbLine
10
173.71137574079737
20
455
30
0
11
132
21
420
31
0
0
LINE
5
512
100
AcDbEntity
8
0
100
AcDbLine
10
132
20
490
30
0
11
198.00000000000006
21
490
31
0
0
LINE
5
513
100
AcDbEntity
8
0
100
AcDbLine
10
132
20
490
30
0
11
173.71137574079737
21
455
31
0
0
LINE
5
514
100
AcDbEntity
8
0
100
AcDbLine
10
239.71137574079737
20
455
30
0
11
198.00000000000006
21
490
31
0
0
LINE
5
515
100
AcDbEntity
8
0
100
AcDbLine
10
173.71137574079737
20
455
30
0
11
239.71137574079737
21
455
31
0
0
LINE
5
516
100
AcDbEntity
8
0
100
AcDbLine
10
132
20
420
30
0
11
173.71137574079737
21
455
31
0
0
LINE
5
517
100
AcDbEntity
8
0
100
AcDbLine
10
132
20
420
30
0
11
198
21
420
31
0
0
LINE
5
518
100
AcDbEntity
8
0
100
AcDbLine
10
239.71137574079737
20
455
30
0
11
198
21
420
31
0
0
LINE
5
519
100
AcDbEntity
8
0
100
AcDbLine
10
198
20
490
30
0
11
264.00000000000006
21
490
31
0
0
LINE
5
520
100
AcDbEntity
8
0
100
AcDbLine
10
198
20
490
30
0
11
239.71137574079737
21
455
31
0
0
LINE
5
521
100
AcDbEntity
8
0
100
AcDbLine
10
305.71137574079734
20
455
30
0
11
264.00000000000006
21
490
31
0
0
LINE
5
522
100
AcDbEntity
8
0
100
AcDbLine
10
239.71137574079737
20
455
30
0
11
305.71137574079734
21
455
31
0
0
LINE
5
523
100
AcDbEntity
8
0
100
AcDbLine
10
198
20
420
30
0
11
239.71137574079737
21
455
31
0
0
LINE
5
524
100
AcDbEntity
8
0
100
AcDbLine
10
198
20
420
30
0
11
264
21
420
31
0
0
LINE
5
525
100
AcDbEntity
8
0
100
AcDbLine
10
305.71137574079734
20
455
30
0
11
264
21
420
31
0
0
LINE
5
526
100
AcDbEntity
8
0
100
AcDbLine
10
264
20
490
30
0
11
330.00000000000006
21
490
31
0
0
LINE
5
527
100
AcDbEntity
8
0
100
AcDbLine
10
264
20
490
30
0
11
305.71137574079739
21
455
31
0
0
LINE
5
528
100
AcDbEntity
8
0
100
AcDbLine
10
371.71137574079739
20
455
30
0
11
330.00000000000006
21
490
31
0
0
LINE
5
529
100
AcDbEntity
8
0
100
AcDbLine
10
305.71137574079739
20
455
30
0
11
371.71137574079739
21
455
31
0
0
LINE
5
530
100
AcDbEntity
8
0
100
AcDbLine
10
264
20
420
30
0
11
305.71137574079739
21
455
31
0
0
LINE
5
531
100
AcDbEntity
8
0
100
AcDbLine
10
264
20
420
30
0
11
330
21
420
31
0
0
LINE
5
532
100
AcDbEntity
8
0
100
AcDbLine
10
371.71137574079739
20
455
30
0
11
330
21
420
31
0
0
LINE
5
533
100
AcDbEntity
8
0
100
AcDbLine
10
330
20
490
30
0
11
396
21
490
31
0
0
LINE
5
534
100
AcDbEntity
8
0
100
AcDbLine
10
330
20
490
30
0
11
371.71137574079739
21
455
31
0
0
LINE
5
535
100
AcDbEntity
8
0
100
AcDbLine
10
437.71137574079739
20
455
30
0
11
396
21
490
31
0
0
LINE
5
536
100
AcDbEntity
8
0
100
AcDbLine
10
371.71137574079739
20
455
30
0
11
437.71137574079739
21
455
31
0
0
LINE
5
537
100
AcDbEntity
8
0
100
AcDbLine
10
330
20
420
30
0
11
371.71137574079739
21
455
31
0
0
LINE
5
538
100
AcDbEntity
8
0
100
AcDbLine
10
330
20
420
30
0
11
396
21
420
31
0
0
LINE
5
539
100
AcDbEntity
8
0
100
AcDbLine
10
437.71137574079739
20
455
30
0
11
396
21
420
31
0
0
LINE
5
540
100
AcDbEntity
8
0
100
AcDbLine
10
396
20
490
30
0
11
462
21
490
31
0
0
LINE
5
541
100
AcDbEntity
8
0
100
AcDbLine
10
396
20
490
30
0
11
437.71137574079739
21
455
31
0
0
LINE
5
542
100
AcDbEntity
8
0
100
AcDbLine
10
503.71137574079739
20
455
30
0
11
462
21
490
31
0
0
LINE
5
543
100
AcDbEntity
8
0
100
AcDbLine
10
437.71137574079739
20
455
30
0
11
503.71137574079739
21
455
31
0
0
LINE
5
544
100
AcDbEntity
8
0
100
AcDbLine
10
396
20
420
30
0
11
437.71137574079739
21
455
31
0
0
LINE
5
545
100
AcDbEntity
8
0
100
AcDbLine
10
396
20
420
30
0
11
462
21
420
31
0
0
LINE
5
546
100
AcDbEntity
8
0
100
AcDbLine
10
503.71137574079739
20
455
30
0
11
462
21
420
31
0
0
LINE
5
547
100
AcDbEntity
8
0
100
AcDbLine
10
462
20
490
30
0
11
528
21
490
31
0
0
LINE
5
548
100
AcDbEntity
8
0
100
AcDbLine
10
462
20
490
30
0
11
503.71137574079739
21
455
31
0
0
LINE
5
549
100
AcDbEntity
8
0
100
AcDbLine
10
569.71137574079739
20
455
30
0
11
528
21
490
31
0
0
LINE
5
550
100
AcDbEntity
8
0
100
AcDbLine
10
503.71137574079739
20
455
30
0
11
569.71137574079739
21
455
31
0
0
LINE
5
551
100
AcDbEntity
8
0
100
AcDbLine
10
462
20
420
30
0
11
503.71137574079739
21
455
31
0
0
LINE
5
552
100
AcDbEntity
8
0
100
AcDbLine
10
462
20
420
30
0
11
528
21
420
31
0
0
LINE
5
553
100
AcDbEntity
8
0
100
AcDbLine
10
569.71137574079739
20
455
30
0
11
528
21
420
31
0
0
LINE
5
554
100
AcDbEntity
8
0
100
AcDbLine
10
528
20
490
30
0
11
594
21
490
31
0
0
LINE
5
555
100
AcDbEntity
8
0
100
AcDbLine
10
528
20
490
30
0
11
569.71137574079739
21
455
31
0
0
LINE
5
556
100
AcDbEntity
8
0
100
AcDbLine
10
635.71137574079739
20
455
30
0
11
594
21
490
31
0
0
LINE
5
557
100
AcDbEntity
8
0
100
AcDbLine
10
569.71137574079739
20
455
30
0
11
635.71137574079739
21
455
31
0
0
LINE
5
558
100
AcDbEntity
8
0
100
AcDbLine
10
528
20
420
30
0
11
569.71137574079739
21
455
31
0
0
LINE
5
559
100
AcDbEntity
8
0
100
AcDbLine
10
528
20
420
30
0
11
594
21
420
31
0
0
LINE
5
560
100
AcDbEntity
8
0
100
AcDbLine
10
635.71137574079739
20
455
30
0
11
594
21
420
31
0
0
LINE
5
561
100
AcDbEntity
8
0
100
AcDbLine
10
594
20
490
30
0
11
660.00000000000011
21
490
31
0
0
LINE
5
562
100
AcDbEntity
8
0
100
AcDbLine
10
594
20
490
30
0
11
635.71137574079739
21
455
31
0
0
LINE
5
563
100
AcDbEntity
8
0
100
AcDbLine
10
635.71137574079739
20
455
30
0
11
701.71137574079739
21
455
31
0
0
LINE
5
564
100
AcDbEntity
8
0
100
AcDbLine
10
594
20
420
30
0
11
635.71137574079739
21
455
31
0
0
LINE
5
565
100
AcDbEntity
8
0
100
AcDbLine
10
594
20
420
30
0
11
660
21
420
31
0
0
LINE
5
566
100
AcDbEntity
8
0
100
AcDbLine
10
0
20
490
30
0
11
0
21
70
31
0
0
LINE
5
567
100
AcDbEntity
8
0
100
AcDbLine
10
660
20
4.0413344371862662e-15
30
0
11
701.71137574079739
21
6.5225602696727947e-15
31
0
0
LINE
5
568
100
AcDbEntity
8
0
100
AcDbLine
10
701.71137574079739
20
35.000000000000028
30
0
11
701.71137574079739
21
6.5225602696727947e-15
31
0
0
LINE
5
569
100
AcDbEntity
8
0
100
AcDbLine
10
701.71137574079739
20
35.000000000000028
30
0
11
701.71137574079739
21
490
31
0
0
LINE
5
570
100
AcDbEntity
8
0
100
AcDbLine
10
701.71137574079739
20
490
30
0
11
660.00000000000011
21
490
31
0
0
LINE
5
571
100
AcDbEntity
8
0
100
AcDbLine
10
660.00000000000011
20
420
30
0
11
701.71137574079739
21
420
31
0
0
LINE
5
572
100
AcDbEntity
8
0
100
AcDbLine
10
701.71137574079739
20
350
30
0
11
660.00000000000011
21
350
31
0
0
LINE
5
573
100
AcDbEntity
8
0
100
AcDbLine
10
701.71137574079739
20
280
30
0
11
660.00000000000011
21
280
31
0
0
LINE
5
574
100
AcDbEntity
8
0
100
AcDbLine
10
701.71137574079739
20
210
30
0
11
660.00000000000011
21
210
31
0
0
LINE
5
575
100
AcDbEntity
8
0
100
AcDbLine
10
701.71137574079739
20
140
30
0
11
660.00000000000011
21
140
31
0
0
LINE
5
576
100
AcDbEntity
8
0
100
AcDbLine
10
701.71137574079739
20
70
30
0
11
660.00000000000011
21
70
31
0
0
LINE
5
577
100
AcDbEntity
8
0
100
AcDbLine
10
41.711375740797358
20
35.000000000000007
30
0
11
0
21
35
31
0
0
LINE
5
578
100
AcDbEntity
8
0
100
AcDbLine
10
41.711375740797358
20
105
30
0
11
0
21
105
31
0
0
LINE
5
579
100
AcDbEntity
8
0
100
AcDbLine
10
41.711375740797358
20
175
30
0
11
0
21
175
31
0
0
LINE
5
580
100
AcDbEntity
8
0
100
AcDbLine
10
41.711375740797358
20
245
30
0
11
0
21
245
31
0
0
LINE
5
581
100
AcDbEntity
8
0
100
AcDbLine
10
41.711375740797358
20
315
30
0
11
0
21
315
31
0
0
LINE
5
582
100
AcDbEntity
8
0
100
AcDbLine
10
41.711375740797358
20
385
30
0
11
0
21
385
31
0
0
LINE
5
583
100
AcDbEntity
8
0
100
AcDbLine
10
41.711375740797358
20
455
30
0
11
0
21
455
31
0
0
ENDSEC
0
SECTION
2
OBJECTS
0
DICTIONARY
5
C
100
AcDbDictionary
3
ACAD_GROUP
350
D
3
ACAD_MLINESTYLE
350
17
0
DICTIONARY
5
D
100
AcDbDictionary
0
DICTIONARY
5
1A
330
C
100
AcDbDictionary
0
DICTIONARY
5
17
100
AcDbDictionary
0
ENDSEC
0
EOF
